<svg width="26" height="26" viewBox="0 0 26 26" fill="none" xmlns="http://www.w3.org/2000/svg">
<path d="M19.5 7.75675C19.435 7.74592 19.3592 7.74592 19.2942 7.75675C17.7992 7.70259 16.6075 6.47842 16.6075 4.96175C16.6075 3.41258 17.8534 2.16675 19.4025 2.16675C20.9517 2.16675 22.1975 3.42342 22.1975 4.96175C22.1867 6.47842 20.995 7.70259 19.5 7.75675Z" stroke="white" stroke-width="1.625" stroke-linecap="round" stroke-linejoin="round"/>
<path d="M18.3842 15.6433C19.8684 15.8925 21.5042 15.6325 22.6525 14.8633C24.18 13.845 24.18 12.1767 22.6525 11.1583C21.4934 10.3892 19.8359 10.1292 18.3517 10.3892" stroke="white" stroke-width="1.625" stroke-linecap="round" stroke-linejoin="round"/>
<path d="M6.46752 7.75675C6.53252 7.74592 6.60835 7.74592 6.67335 7.75675C8.16835 7.70259 9.36002 6.47842 9.36002 4.96175C9.36002 3.41258 8.11419 2.16675 6.56502 2.16675C5.01585 2.16675 3.77002 3.42342 3.77002 4.96175C3.78085 6.47842 4.97252 7.70259 6.46752 7.75675Z" stroke="white" stroke-width="1.625" stroke-linecap="round" stroke-linejoin="round"/>
<path d="M7.58339 15.6433C6.09922 15.8925 4.46339 15.6325 3.31506 14.8633C1.78756 13.845 1.78756 12.1767 3.31506 11.1583C4.47423 10.3892 6.13172 10.1292 7.61589 10.3892" stroke="white" stroke-width="1.625" stroke-linecap="round" stroke-linejoin="round"/>
<path d="M13 15.849C12.935 15.8382 12.8592 15.8382 12.7942 15.849C11.2992 15.7949 10.1075 14.5707 10.1075 13.054C10.1075 11.5049 11.3534 10.259 12.9025 10.259C14.4517 10.259 15.6975 11.5157 15.6975 13.054C15.6867 14.5707 14.495 15.8057 13 15.849Z" stroke="white" stroke-width="1.625" stroke-linecap="round" stroke-linejoin="round"/>
<path d="M9.84753 19.2616C8.32003 20.28 8.32003 21.9483 9.84753 22.9666C11.5809 24.1258 14.4192 24.1258 16.1525 22.9666C17.68 21.9483 17.68 20.28 16.1525 19.2616C14.43 18.1133 11.5809 18.1133 9.84753 19.2616Z" stroke="white" stroke-width="1.625" stroke-linecap="round" stroke-linejoin="round"/>
</svg>
