<svg width="27" height="26" viewBox="0 0 27 26" fill="none" xmlns="http://www.w3.org/2000/svg">
<path d="M14.215 2.72806L14.1825 2.8039L11.0408 10.0947H7.95329C7.21662 10.0947 6.51246 10.2464 5.87329 10.5172L7.76912 5.9889L7.81246 5.88056L7.88829 5.70723C7.90996 5.64223 7.93162 5.57723 7.96412 5.52306C9.38329 2.24056 10.9866 1.49306 14.215 2.72806Z" stroke="white" stroke-width="1.625" stroke-linecap="round" stroke-linejoin="round"/>
<path d="M20.0541 10.3114C19.5666 10.1597 19.0466 10.0947 18.5266 10.0947H11.0408L14.1824 2.80386L14.2149 2.72803C14.3774 2.78219 14.5291 2.85803 14.6916 2.92303L17.0858 3.93053C18.4183 4.48303 19.3499 5.05719 19.9133 5.75053C20.0216 5.88053 20.1083 5.99969 20.1841 6.14053C20.2816 6.29219 20.3574 6.44386 20.4008 6.60636C20.4441 6.70386 20.4766 6.80136 20.4983 6.88803C20.7908 7.79803 20.6174 8.91386 20.0541 10.3114Z" stroke="white" stroke-width="1.625" stroke-linecap="round" stroke-linejoin="round"/>
<path d="M23.8152 15.3816V17.4941C23.8152 17.7108 23.8043 17.9275 23.7935 18.1441C23.5877 21.925 21.4752 23.8316 17.4668 23.8316H9.01682C8.75682 23.8316 8.49682 23.81 8.24765 23.7775C4.80265 23.55 2.96099 21.7083 2.73349 18.2633C2.70099 18.0141 2.67932 17.7541 2.67932 17.4941V15.3816C2.67932 13.2041 4.00099 11.33 5.88599 10.5175C6.53599 10.2466 7.22932 10.095 7.96599 10.095H18.5393C19.0702 10.095 19.5902 10.1708 20.0668 10.3116C22.2227 10.9725 23.8152 12.9875 23.8152 15.3816Z" stroke="white" stroke-width="1.625" stroke-linecap="round" stroke-linejoin="round"/>
<path d="M7.76913 5.98877L5.87329 10.5171C3.98829 11.3296 2.66663 13.2038 2.66663 15.3813V12.2071C2.66663 9.13044 4.85496 6.56294 7.76913 5.98877Z" stroke="white" stroke-width="1.625" stroke-linecap="round" stroke-linejoin="round"/>
<path d="M23.8118 12.2065V15.3807C23.8118 12.9974 22.2301 10.9715 20.0635 10.3215C20.6268 8.91321 20.7893 7.80821 20.5185 6.88738C20.4968 6.78988 20.4643 6.69238 20.421 6.60571C22.436 7.64571 23.8118 9.77988 23.8118 12.2065Z" stroke="white" stroke-width="1.625" stroke-linecap="round" stroke-linejoin="round"/>
</svg>
