<svg width="27" height="26" viewBox="0 0 27 26" fill="none" xmlns="http://www.w3.org/2000/svg">
<path d="M5.37504 17.8751C3.75004 19.2401 3.20837 23.2918 3.20837 23.2918C3.20837 23.2918 7.26004 22.7501 8.62504 21.1251C9.39421 20.2151 9.38337 18.8176 8.52754 17.9726C8.10646 17.5707 7.55177 17.3385 6.96995 17.3205C6.38813 17.3025 5.82016 17.5 5.37504 17.8751Z" stroke="white" stroke-width="1.625" stroke-linecap="round" stroke-linejoin="round"/>
<path d="M13.5 16.2501L10.25 13.0001C10.8265 11.5045 11.5524 10.0708 12.4167 8.72094C13.6789 6.70267 15.4366 5.04091 17.5224 3.8937C19.6082 2.7465 21.9529 2.15201 24.3333 2.16677C24.3333 5.11344 23.4883 10.2918 17.8333 14.0834C16.465 14.9487 15.0132 15.6746 13.5 16.2501Z" stroke="white" stroke-width="1.625" stroke-linecap="round" stroke-linejoin="round"/>
<path d="M10.25 13.0001H4.83337C4.83337 13.0001 5.42921 9.71756 7.00004 8.66673C8.75504 7.49673 12.4167 8.66673 12.4167 8.66673" stroke="white" stroke-width="1.625" stroke-linecap="round" stroke-linejoin="round"/>
<path d="M13.5 16.2499V21.6666C13.5 21.6666 16.7825 21.0708 17.8333 19.4999C19.0033 17.7449 17.8333 14.0833 17.8333 14.0833" stroke="white" stroke-width="1.625" stroke-linecap="round" stroke-linejoin="round"/>
</svg>
